<?xml version="1.0" encoding="utf-8"?>
<!-- Generator: Adobe Illustrator 19.1.0, SVG Export Plug-In . SVG Version: 6.00 Build 0)  -->
<svg version="1.1"
	 id="svg2" inkscape:version="0.91 r13725" sodipodi:docname="THOR_website.svg" xmlns:sodipodi="http://sodipodi.sourceforge.net/DTD/sodipodi-0.dtd" xmlns:dc="http://purl.org/dc/elements/1.1/" xmlns:svg="http://www.w3.org/2000/svg" xmlns:rdf="http://www.w3.org/1999/02/22-rdf-syntax-ns#" xmlns:cc="http://creativecommons.org/ns#" xmlns:inkscape="http://www.inkscape.org/namespaces/inkscape"
	 xmlns="http://www.w3.org/2000/svg" xmlns:xlink="http://www.w3.org/1999/xlink" x="0px" y="0px" viewBox="-198.1 495.7 227 244.9"
	 style="enable-background:new -198.1 495.7 227 244.9;" xml:space="preserve">
<style type="text/css">
	.st0{fill:#8DC53F;}
	.st1{fill:#007EC1;}
	.st2{fill:#FFFFFF;}
</style>
<g id="layer1" transform="translate(-87.161009,-199.1772)" inkscape:groupmode="layer" inkscape:label="Layer 1">
	<g id="g4232" transform="translate(4.9036229,-0.28729859)">
		<path id="path3417" sodipodi:nodetypes="cccccccccccc" inkscape:connector-curvature="0" class="st0" d="M32.2,762.7
			c12.4,18.9,15.4,44.5,4.8,64.8c-7.9,15.9-23.5,27.2-41,30.3c10.8-5.1,21.9-11.1,29-21.2c11.3-13.5,14.5-33.6,6.7-49.5
			c-5.7-12.5-19.3-20.7-33-19.8C-13.7,767.9-22.9,778-29,788c-7.1-5.2-7.3-15.4-3.5-22.5c7.4-14.6,24.4-22.5,40.2-22.3
			c17.9,0.2,34.1,11.6,42.6,27c-5.1-2.7-8.7-9-14.9-8.7C34.1,761.7,33.2,762.2,32.2,762.7"/>
		<path id="path4240" sodipodi:nodetypes="cccccccccccc" inkscape:connector-curvature="0" class="st1" d="M-37,813.3
			c-12.4-18.9-15.4-44.5-4.8-64.8c7.9-15.9,23.5-27.2,41-30.3c-10.8,5.1-21.9,11.1-29,21.2c-11.3,13.5-14.5,33.6-6.7,49.5
			c5.7,12.5,19.3,20.7,33,19.8C8.9,808,18.1,798,24.3,787.9c7.1,5.2,7.3,15.4,3.5,22.5c-7.4,14.6-24.4,22.5-40.2,22.3
			c-17.9-0.2-34.1-11.6-42.6-27c5.1,2.7,8.7,9,14.9,8.7C-38.9,814.2-38,813.8-37,813.3"/>
	</g>
	<g>
		<path id="path4242" sodipodi:nodetypes="ccccccccccccccccccc" inkscape:connector-curvature="0" class="st2" d="M-96.6,873
			l57.1,0.2l-0.1,22.9l25.3,0.2l-0.1-23.2l8.6,0.1v50.5h-8.7l-0.2-24.2l-25-0.2v24h-8.5l-0.1-46.8h-21.7l-0.2,47.1h-8.5l0.1-47
			l-18.1-0.1L-96.6,873z"/>
		<path id="path4244" inkscape:connector-curvature="0" class="st2" d="M27.1,872.2c-15.5,0-28,11.8-28,26.3l0,0
			c0,14.5,12.5,26.3,28,26.3s28-11.8,28-26.3C55,883.9,42.5,872.2,27.1,872.2L27.1,872.2L27.1,872.2z M27,874.8
			c10.1,0,18.4,10.7,18.4,23.7c0,13.1-8.2,23.7-18.4,23.7S8.6,911.5,8.6,898.4l0,0C8.6,885.3,16.8,874.8,27,874.8L27,874.8L27,874.8
			z"/>
		<path id="path4248" inkscape:connector-curvature="0" class="st2" d="M59.9,873.2v50.4l8.4,0.1V900h6l17.2,23.6h10.2L83.3,899
			c6.6-2.3,11.5-5.2,11.9-12.8c-0.2-6.5-5.2-12.6-12.7-12.7L59.9,873.2L59.9,873.2z M68.4,876.3H77c4.5,0.9,9.3,4.6,9.6,9.7
			c-0.1,4.8-3.2,9.9-9.4,11.4h-8.9L68.4,876.3z"/>
	</g>
</g>
</svg>
