<?xml version="1.0" encoding="utf-8"?>
<!-- Generator: Adobe Illustrator 15.0.2, SVG Export Plug-In  -->
<!DOCTYPE svg PUBLIC "-//W3C//DTD SVG 1.1//EN" "http://www.w3.org/Graphics/SVG/1.1/DTD/svg11.dtd" [
	<!ENTITY ns_flows "http://ns.adobe.com/Flows/1.0/">
]>
<svg version="1.1"
	 xmlns="http://www.w3.org/2000/svg" xmlns:xlink="http://www.w3.org/1999/xlink" xmlns:a="http://ns.adobe.com/AdobeSVGViewerExtensions/3.0/"
	 x="0px" y="0px" width="96px" height="98px" viewBox="-8.281 -3.086 96 98"
	 overflow="visible" enable-background="new -8.281 -3.086 96 98" xml:space="preserve">
<defs>
</defs>
<path fill-rule="evenodd" clip-rule="evenodd" fill="#FFFFFF" d="M34.233,0C22.853,5.92,9.018,34.175,23.975,48.359
	c8.252,7.826,28.823,6.1,32.972-6.594C69.921,62.901,27.974,78.288,9.321,53.488c2.32,0.611,5.067,3.989,9.128,3.643
	c0.336-0.707,1.111-1.217,0.794-1.679C13.719,47.411,2.947,19.109,34.233,0z"/>
<path fill-rule="evenodd" clip-rule="evenodd" fill="#2CB99A" d="M43.914,84.064c11.606-5.464,26.552-33.146,12.17-47.914
	c-7.935-8.147-28.558-7.238-33.208,5.28c-12.125-21.635,30.4-35.344,48.054-9.823c-2.293-0.703-4.905-4.187-8.977-4.002
	c-0.363,0.693-1.167,1.178-0.859,1.646C66.885,38.078,75.934,66.212,43.914,84.064z"/>
<path fill="#FFFFFF" d="M10.214,77.163V90.56H5.513V77.163H0v-3.466h15.782v3.466H10.214z"/>
<path fill="#FFFFFF" d="M30.148,90.56v-6.542h-7.655v6.542h-4.698V73.721h4.698v6.928h7.655v-6.928h4.698V90.56H30.148z"/>
<path fill="#FFFFFF" d="M57.317,82.117c0,4.909-4.276,8.636-10.004,8.636c-5.699,0-9.975-3.706-9.975-8.636
	c0-4.909,4.273-8.541,9.975-8.541C53.041,73.576,57.317,77.233,57.317,82.117z M42.143,82.139c0,2.841,2.4,5.03,5.225,5.03
	c2.851,0,5.119-2.189,5.119-5.03c0-2.837-2.268-4.979-5.119-4.979C44.516,77.163,42.143,79.302,42.143,82.139z"/>
<path fill="#FFFFFF" d="M68.202,85.821H68.07h-3.562v4.738h-4.701V73.721h8.262c4.884,0,7.681,2.118,7.681,5.871
	c0,2.575-1.187,4.426-3.353,5.412l3.881,5.556h-5.332L68.202,85.821z M68.07,82.453c2.033,0,3.22-0.936,3.22-2.718
	c0-1.757-1.187-2.646-3.22-2.646h-3.562v5.362h3.562V82.453z"/>
</svg>
