<?xml version="1.0" encoding="utf-8"?>
<!-- Generator: Adobe Illustrator 15.0.2, SVG Export Plug-In  -->
<!DOCTYPE svg PUBLIC "-//W3C//DTD SVG 1.1//EN" "http://www.w3.org/Graphics/SVG/1.1/DTD/svg11.dtd" [
	<!ENTITY ns_flows "http://ns.adobe.com/Flows/1.0/">
]>
<svg version="1.1"
	 xmlns="http://www.w3.org/2000/svg" xmlns:xlink="http://www.w3.org/1999/xlink" xmlns:a="http://ns.adobe.com/AdobeSVGViewerExtensions/3.0/"
	 x="0px" y="0px" width="43px" height="48px" viewBox="-3.149 -2.609 43 48"
	 overflow="visible" enable-background="new -3.149 -2.609 43 48" xml:space="preserve">
<defs>
</defs>
<rect x="16.691" y="5.543" fill="#2C3E50" width="3.485" height="20.8"/>
<polygon fill="#29B99A" points="28.338,9.263 24.921,10.9 24.922,0 28.338,1.637 "/>
<polygon fill="#29B99A" points="8.387,1.637 11.804,0 11.804,10.9 8.387,9.263 "/>
<g>
	<defs>
		<rect id="SVGID_1_" x="16.691" y="7.043" width="3.485" height="20.8"/>
	</defs>
	<clipPath id="SVGID_2_">
		<use xlink:href="#SVGID_1_"  overflow="visible"/>
	</clipPath>
	<g clip-path="url(#SVGID_2_)">
		
			<rect x="18.279" y="1.411" transform="matrix(0.7071 0.7071 -0.7071 0.7071 11.5292 -10.7813)" fill="#35495E" width="1" height="14.231"/>
	</g>
	<g clip-path="url(#SVGID_2_)">
		
			<rect x="18.279" y="5.38" transform="matrix(0.7071 0.7071 -0.7071 0.7071 14.3356 -9.6189)" fill="#35495E" width="1" height="14.231"/>
	</g>
	<g clip-path="url(#SVGID_2_)">
		
			<rect x="18.279" y="9.349" transform="matrix(0.7071 0.7071 -0.7071 0.7071 17.1419 -8.4565)" fill="#35495E" width="1" height="14.231"/>
	</g>
	<g clip-path="url(#SVGID_2_)">
		
			<rect x="18.279" y="13.317" transform="matrix(0.7071 0.7071 -0.7071 0.7071 19.9482 -7.294)" fill="#35495E" width="1" height="14.231"/>
	</g>
	<g clip-path="url(#SVGID_2_)">
		
			<rect x="18.279" y="17.286" transform="matrix(0.7071 0.7071 -0.7071 0.7071 22.7546 -6.1316)" fill="#35495E" width="1" height="14.231"/>
	</g>
</g>
<path fill="#2C3E50" d="M21.129,27.723c0,0.296-0.24,0.537-0.536,0.536l-4.229,0c-0.296,0-0.535-0.24-0.536-0.537l0.001-1.31
	c-0.001-0.295,0.239-0.536,0.536-0.536h4.228c0.297,0,0.537,0.24,0.537,0.536V27.723z"/>
<rect x="11.766" y="0" fill="#13A086" width="13.17" height="10.901"/>
<polygon fill="#29B99A" points="13.129,9.992 13.129,1.271 24.211,1.271 14.128,2.09 "/>
<path fill="#FFFFFF" d="M4.915,34.279v7.073H2.653v-7.073H0V32.45h7.594v1.829H4.915z"/>
<path fill="#FFFFFF" d="M14.506,41.352v-3.454h-3.683v3.454h-2.26v-8.889h2.26v3.657h3.683v-3.657h2.261v8.889H14.506z"/>
<path fill="#FFFFFF" d="M27.578,36.895c0,2.59-2.057,4.559-4.812,4.559c-2.743,0-4.8-1.956-4.8-4.559c0-2.591,2.057-4.508,4.8-4.508
	C25.521,32.386,27.578,34.316,27.578,36.895z M20.277,36.907c0,1.499,1.155,2.654,2.514,2.654c1.372,0,2.463-1.155,2.463-2.654
	c0-1.498-1.091-2.628-2.463-2.628S20.277,35.409,20.277,36.907z"/>
<path fill="#FFFFFF" d="M32.815,38.85h-0.062h-1.714v2.502h-2.262v-8.889h3.976c2.35,0,3.695,1.118,3.695,3.098
	c0,1.359-0.571,2.337-1.613,2.857l1.867,2.934h-2.565L32.815,38.85z M32.753,37.072c0.978,0,1.549-0.495,1.549-1.435
	c0-0.927-0.571-1.397-1.549-1.397h-1.714v2.832H32.753z"/>
</svg>
