<?xml version="1.0" encoding="utf-8"?>
<!-- Generator: Adobe Illustrator 15.0.2, SVG Export Plug-In  -->
<!DOCTYPE svg PUBLIC "-//W3C//DTD SVG 1.1//EN" "http://www.w3.org/Graphics/SVG/1.1/DTD/svg11.dtd" [
	<!ENTITY ns_flows "http://ns.adobe.com/Flows/1.0/">
]>
<svg version="1.1"
	 xmlns="http://www.w3.org/2000/svg" xmlns:xlink="http://www.w3.org/1999/xlink" xmlns:a="http://ns.adobe.com/AdobeSVGViewerExtensions/3.0/"
	 x="0px" y="0px" width="72px" height="67px" viewBox="-5.263 -4.605 72 67"
	 overflow="visible" enable-background="new -5.263 -4.605 72 67" xml:space="preserve">
<defs>
</defs>
<path fill="#26B99A" d="M6.44,58.075H5.505V56.72c-0.468,0.888-1.332,1.403-2.459,1.403C1.247,58.123,0,56.792,0,54.908
	c0-1.895,1.247-3.202,3.034-3.202c1.127,0,2.003,0.516,2.471,1.416v-3.946H6.44V58.075z M5.505,54.933
	c0-1.379-0.948-2.375-2.279-2.375c-1.343,0-2.29,0.996-2.29,2.375c0,1.367,0.947,2.351,2.29,2.351
	C4.557,57.283,5.505,56.3,5.505,54.933z"/>
<path fill="#26B99A" d="M12.705,57.104c-0.504,0.684-1.308,1.02-2.314,1.02c-1.308,0-2.147-0.84-2.147-1.931
	c0-1.104,0.876-1.8,2.363-1.812h2.074v-0.372c0-0.923-0.575-1.475-1.69-1.475c-0.696,0-1.344,0.264-2.003,0.72L8.591,52.57
	c0.816-0.54,1.5-0.852,2.579-0.852c1.56,0,2.423,0.827,2.435,2.183l0.012,4.174h-0.911V57.104z M12.693,55.893v-0.756h-1.967
	c-1.056,0-1.607,0.323-1.607,1.02c0,0.695,0.563,1.151,1.451,1.151C11.638,57.308,12.453,56.768,12.693,55.893z"/>
<path fill="#26B99A" d="M19.401,52.294l-0.36,0.744c-0.491-0.312-1.127-0.516-1.715-0.516c-0.708,0-1.247,0.251-1.247,0.839
	c0,1.403,3.525,0.684,3.525,2.95c0,1.248-1.103,1.8-2.314,1.8c-0.899,0-1.823-0.312-2.423-0.888l0.36-0.708
	c0.539,0.504,1.355,0.804,2.099,0.804s1.343-0.275,1.355-0.899c0.036-1.523-3.502-0.744-3.49-2.986c0-1.212,1.043-1.715,2.194-1.715
	C18.142,51.719,18.873,51.935,19.401,52.294z"/>
<path fill="#26B99A" d="M26.996,54.177v3.898h-0.936v-3.646c0-1.115-0.672-1.774-1.787-1.774c-1.344,0.012-2.135,0.959-2.135,2.314
	v3.106h-0.936v-8.899h0.936v3.994c0.432-0.983,1.295-1.439,2.458-1.451C26.108,51.719,26.996,52.654,26.996,54.177z"/>
<path fill="#26B99A" d="M35.552,54.933c0,1.871-1.224,3.179-3.011,3.179c-1.127,0-1.991-0.517-2.459-1.392v1.355h-0.936v-8.899
	h0.936v3.946c0.468-0.888,1.332-1.403,2.435-1.403C34.304,51.719,35.552,53.038,35.552,54.933z M34.604,54.908
	c0-1.354-0.936-2.351-2.255-2.351c-1.331,0-2.267,0.983-2.267,2.351c0,1.38,0.936,2.352,2.267,2.352
	C33.668,57.26,34.604,56.276,34.604,54.908z"/>
<path fill="#26B99A" d="M42.968,54.908c0,1.896-1.331,3.203-3.202,3.203s-3.202-1.308-3.202-3.203c0-1.883,1.331-3.178,3.202-3.178
	S42.968,53.025,42.968,54.908z M37.499,54.921c0,1.391,0.947,2.351,2.267,2.351s2.267-0.96,2.267-2.351
	c0-1.38-0.947-2.339-2.267-2.339S37.499,53.541,37.499,54.921z"/>
<path fill="#26B99A" d="M48.536,57.104c-0.503,0.684-1.307,1.02-2.314,1.02c-1.307,0-2.146-0.84-2.146-1.931
	c0-1.104,0.875-1.8,2.362-1.812h2.075v-0.372c0-0.923-0.576-1.475-1.691-1.475c-0.695,0-1.343,0.264-2.003,0.72l-0.396-0.684
	c0.815-0.54,1.499-0.852,2.578-0.852c1.56,0,2.423,0.827,2.436,2.183l0.012,4.174h-0.912V57.104z M48.524,55.893v-0.756h-1.967
	c-1.056,0-1.607,0.323-1.607,1.02c0,0.695,0.564,1.151,1.451,1.151C47.469,57.308,48.285,56.768,48.524,55.893z"/>
<path fill="#26B99A" d="M52.474,53.157c0.42-0.923,1.2-1.427,2.268-1.438v0.947c-1.332-0.024-2.159,0.804-2.268,2.051v3.358h-0.936
	v-6.32h0.936V53.157z"/>
<path fill="#26B99A" d="M61.808,58.075h-0.936V56.72c-0.468,0.888-1.332,1.403-2.459,1.403c-1.799,0-3.046-1.331-3.046-3.215
	c0-1.895,1.247-3.202,3.034-3.202c1.127,0,2.003,0.516,2.471,1.416v-3.946h0.936V58.075z M60.872,54.933
	c0-1.379-0.948-2.375-2.279-2.375c-1.343,0-2.29,0.996-2.29,2.375c0,1.367,0.947,2.351,2.29,2.351
	C59.924,57.283,60.872,56.3,60.872,54.933z"/>
<rect x="30.355" y="5.543" fill="#2C3E50" width="3.485" height="20.8"/>
<polygon fill="#29B99A" points="42.688,9.264 38.601,10.901 38.602,0.001 42.688,1.638 "/>
<polygon fill="#29B99A" points="21.342,1.637 25.429,0 25.429,10.9 21.342,9.264 "/>
<path fill="#FFFFFF" d="M15.49,37.558v8.113h-2.594v-8.113H9.853V35.46h8.711v2.098H15.49z"/>
<path fill="#FFFFFF" d="M26.493,45.671v-3.962h-4.225v3.962h-2.593V35.475h2.593v4.195h4.225v-4.195h2.593v10.196H26.493z"/>
<path fill="#FFFFFF" d="M41.488,40.559c0,2.972-2.359,5.229-5.521,5.229c-3.146,0-5.506-2.244-5.506-5.229
	c0-2.973,2.359-5.172,5.506-5.172C39.129,35.387,41.488,37.601,41.488,40.559z M33.113,40.572c0,1.72,1.325,3.045,2.884,3.045
	c1.573,0,2.825-1.325,2.825-3.045c0-1.718-1.252-3.015-2.825-3.015C34.423,37.558,33.113,38.854,33.113,40.572z"/>
<path fill="#FFFFFF" d="M47.496,42.802h-0.072h-1.966v2.869h-2.594V35.475h4.56c2.695,0,4.239,1.282,4.239,3.554
	c0,1.56-0.655,2.681-1.851,3.277l2.142,3.365h-2.942L47.496,42.802z M47.424,40.762c1.122,0,1.777-0.567,1.777-1.646
	c0-1.063-0.655-1.603-1.777-1.603h-1.966v3.248H47.424z"/>
<g>
	<defs>
		<rect id="SVGID_2_" x="30.355" y="7.043" width="3.485" height="20.8"/>
	</defs>
	<use xlink:href="#SVGID_2_"  overflow="visible" fill="#35495E"/>
	<clipPath id="SVGID_4_">
		<use xlink:href="#SVGID_2_"  overflow="visible"/>
	</clipPath>
	<g clip-path="url(#SVGID_4_)">
		
			<rect x="31.942" y="1.411" transform="matrix(0.7071 0.7071 -0.7071 0.7071 15.5312 -20.4429)" fill="#2C3E50" width="1" height="14.231"/>
	</g>
	<g clip-path="url(#SVGID_4_)">
		
			<rect x="31.942" y="5.38" transform="matrix(0.7071 0.7071 -0.7071 0.7071 18.3375 -19.2805)" fill="#2C3E50" width="1" height="14.231"/>
	</g>
	<g clip-path="url(#SVGID_4_)">
		
			<rect x="31.942" y="9.349" transform="matrix(0.7071 0.7071 -0.7071 0.7071 21.1439 -18.1181)" fill="#2C3E50" width="1" height="14.231"/>
	</g>
	<g clip-path="url(#SVGID_4_)">
		
			<rect x="31.942" y="13.317" transform="matrix(0.7071 0.7071 -0.7071 0.7071 23.9502 -16.9557)" fill="#2C3E50" width="1" height="14.231"/>
	</g>
	<g clip-path="url(#SVGID_4_)">
		
			<rect x="31.942" y="17.286" transform="matrix(0.7071 0.7071 -0.7071 0.7071 26.7565 -15.7932)" fill="#2C3E50" width="1" height="14.231"/>
	</g>
</g>
<path fill="#35495E" d="M34.793,27.723c0,0.297-0.24,0.537-0.536,0.536l-4.229,0.001c-0.296-0.001-0.535-0.24-0.536-0.537
	l0.001-1.311c-0.001-0.295,0.239-0.536,0.536-0.535h4.228c0.297,0,0.537,0.24,0.537,0.536V27.723z"/>
<rect x="25.43" y="0" fill="#13A086" width="13.17" height="10.901"/>
<polygon fill="#29B99A" points="26.793,9.992 26.793,1.271 37.875,1.271 27.792,2.09 "/>
<rect x="4.401" y="24.729" display="none" fill="none" width="153.333" height="29.333"/>
<g display="none">
</g>
</svg>
